<mxfile host="app.diagrams.net" agent="Mozilla/5.0 (Windows NT 10.0; Win64; x64) AppleWebKit/537.36 (KHTML, like Gecko) Chrome/133.0.0.0 Safari/537.36" version="26.0.6">
  <diagram name="Página-1" id="unwEHZYAFIuVfeTcObLq">
    <mxGraphModel dx="2087" dy="1678" grid="0" gridSize="10" guides="1" tooltips="1" connect="1" arrows="1" fold="1" page="0" pageScale="1" pageWidth="827" pageHeight="1169" math="0" shadow="0">
      <root>
        <mxCell id="0" />
        <mxCell id="1" parent="0" />
        <mxCell id="1sTn_rpqckPuHHWjUy16-346" value="" style="edgeStyle=none;curved=1;rounded=0;orthogonalLoop=1;jettySize=auto;html=1;fontSize=12;startSize=8;endSize=8;fillColor=#f8cecc;strokeColor=#b85450;strokeWidth=3;endArrow=none;endFill=0;" parent="1" target="1sTn_rpqckPuHHWjUy16-345" edge="1">
          <mxGeometry relative="1" as="geometry">
            <mxPoint x="-117" y="-393" as="sourcePoint" />
          </mxGeometry>
        </mxCell>
        <mxCell id="1sTn_rpqckPuHHWjUy16-344" value="&lt;b&gt;Jugador&lt;/b&gt;" style="shape=umlActor;verticalLabelPosition=bottom;verticalAlign=top;html=1;fillColor=#f8cecc;strokeColor=#b85450;strokeWidth=3;" parent="1" vertex="1">
          <mxGeometry x="-132" y="-482" width="30" height="60" as="geometry" />
        </mxCell>
        <mxCell id="1sTn_rpqckPuHHWjUy16-345" value="&lt;b&gt;Jugador&lt;/b&gt;" style="shape=umlActor;verticalLabelPosition=bottom;verticalAlign=top;html=1;fillColor=#f8cecc;strokeColor=#b85450;strokeWidth=3;" parent="1" vertex="1">
          <mxGeometry x="-132" y="349" width="30" height="60" as="geometry" />
        </mxCell>
        <mxCell id="1sTn_rpqckPuHHWjUy16-355" value="" style="edgeStyle=none;curved=1;rounded=0;orthogonalLoop=1;jettySize=auto;html=1;fontSize=12;startSize=8;endSize=8;endArrow=none;startFill=0;fillColor=#dae8fc;strokeColor=#6c8ebf;strokeWidth=3;" parent="1" source="1sTn_rpqckPuHHWjUy16-348" target="1sTn_rpqckPuHHWjUy16-354" edge="1">
          <mxGeometry relative="1" as="geometry" />
        </mxCell>
        <mxCell id="1sTn_rpqckPuHHWjUy16-348" value="&lt;b&gt;Sistema&lt;/b&gt;" style="html=1;whiteSpace=wrap;fillColor=#dae8fc;strokeColor=#6c8ebf;strokeWidth=3;" parent="1" vertex="1">
          <mxGeometry x="145" y="-476" width="110" height="50" as="geometry" />
        </mxCell>
        <mxCell id="1sTn_rpqckPuHHWjUy16-357" value="" style="edgeStyle=none;curved=1;rounded=0;orthogonalLoop=1;jettySize=auto;html=1;fontSize=12;startSize=8;endSize=8;endArrow=none;startFill=0;fillColor=#d5e8d4;strokeColor=#82b366;strokeWidth=3;" parent="1" source="1sTn_rpqckPuHHWjUy16-349" target="1sTn_rpqckPuHHWjUy16-356" edge="1">
          <mxGeometry relative="1" as="geometry" />
        </mxCell>
        <mxCell id="1sTn_rpqckPuHHWjUy16-349" value="&lt;b&gt;BBDD&lt;/b&gt;" style="html=1;whiteSpace=wrap;fillColor=#d5e8d4;strokeColor=#82b366;strokeWidth=3;" parent="1" vertex="1">
          <mxGeometry x="463" y="-472" width="110" height="50" as="geometry" />
        </mxCell>
        <mxCell id="1sTn_rpqckPuHHWjUy16-354" value="&lt;b&gt;Sistema&lt;/b&gt;" style="html=1;whiteSpace=wrap;fillColor=#dae8fc;strokeColor=#6c8ebf;strokeWidth=3;" parent="1" vertex="1">
          <mxGeometry x="148" y="355" width="110" height="50" as="geometry" />
        </mxCell>
        <mxCell id="1sTn_rpqckPuHHWjUy16-356" value="&lt;b&gt;BBDD&lt;/b&gt;" style="html=1;whiteSpace=wrap;fillColor=#d5e8d4;strokeColor=#82b366;strokeWidth=3;" parent="1" vertex="1">
          <mxGeometry x="466" y="359" width="110" height="50" as="geometry" />
        </mxCell>
        <mxCell id="C3Lxm-kHkf1sFhJQrUD9-1" value="Ingresar Usuario y la contraseña" style="html=1;verticalAlign=bottom;endArrow=block;curved=0;rounded=0;fillColor=#f8cecc;strokeColor=#b85450;strokeWidth=3;" edge="1" parent="1">
          <mxGeometry width="80" relative="1" as="geometry">
            <mxPoint x="-119" y="-330" as="sourcePoint" />
            <mxPoint x="200" y="-330" as="targetPoint" />
          </mxGeometry>
        </mxCell>
        <mxCell id="C3Lxm-kHkf1sFhJQrUD9-2" value="Validar credenciales (Usuario y contraseña)" style="html=1;verticalAlign=bottom;endArrow=block;curved=0;rounded=0;fillColor=#dae8fc;strokeColor=#6c8ebf;strokeWidth=3;" edge="1" parent="1">
          <mxGeometry width="80" relative="1" as="geometry">
            <mxPoint x="199" y="-298" as="sourcePoint" />
            <mxPoint x="518" y="-298" as="targetPoint" />
          </mxGeometry>
        </mxCell>
        <mxCell id="C3Lxm-kHkf1sFhJQrUD9-3" value="Respuesta sobre validación" style="html=1;verticalAlign=bottom;endArrow=open;dashed=1;endSize=8;curved=0;rounded=0;fillColor=#d5e8d4;strokeColor=#82b366;strokeWidth=3;" edge="1" parent="1">
          <mxGeometry x="0.0031" relative="1" as="geometry">
            <mxPoint x="519" y="-248" as="sourcePoint" />
            <mxPoint x="200" y="-248" as="targetPoint" />
            <mxPoint as="offset" />
          </mxGeometry>
        </mxCell>
        <mxCell id="C3Lxm-kHkf1sFhJQrUD9-5" value="Pantalla de selección de partidas" style="html=1;verticalAlign=bottom;endArrow=none;curved=0;rounded=0;endFill=0;startArrow=block;startFill=1;fillColor=#dae8fc;strokeColor=#6c8ebf;strokeWidth=3;" edge="1" parent="1">
          <mxGeometry x="0.0011" width="80" relative="1" as="geometry">
            <mxPoint x="-118" y="-150" as="sourcePoint" />
            <mxPoint x="204" y="-150" as="targetPoint" />
            <mxPoint as="offset" />
          </mxGeometry>
        </mxCell>
        <mxCell id="C3Lxm-kHkf1sFhJQrUD9-7" value="Elegir modo de juego en línea" style="html=1;verticalAlign=bottom;endArrow=block;curved=0;rounded=0;fillColor=#f8cecc;strokeColor=#b85450;strokeWidth=3;" edge="1" parent="1">
          <mxGeometry width="80" relative="1" as="geometry">
            <mxPoint x="-115" y="-77" as="sourcePoint" />
            <mxPoint x="200" y="-77" as="targetPoint" />
          </mxGeometry>
        </mxCell>
        <mxCell id="C3Lxm-kHkf1sFhJQrUD9-8" value="Búsqueda de jugadores disponibles" style="html=1;verticalAlign=bottom;endArrow=block;curved=1;rounded=0;edgeStyle=orthogonalEdgeStyle;fillColor=#dae8fc;strokeColor=#6c8ebf;strokeWidth=3;" edge="1" parent="1">
          <mxGeometry width="80" relative="1" as="geometry">
            <mxPoint x="202" y="-35" as="sourcePoint" />
            <mxPoint x="202" y="37" as="targetPoint" />
            <Array as="points">
              <mxPoint x="268" y="-35" />
              <mxPoint x="268" y="37" />
            </Array>
          </mxGeometry>
        </mxCell>
        <mxCell id="C3Lxm-kHkf1sFhJQrUD9-9" value="Empareja los jugadores" style="html=1;verticalAlign=bottom;endArrow=none;curved=0;rounded=0;endFill=0;startArrow=block;startFill=1;fillColor=#dae8fc;strokeColor=#6c8ebf;strokeWidth=3;" edge="1" parent="1">
          <mxGeometry x="0.0011" width="80" relative="1" as="geometry">
            <mxPoint x="-119" y="79" as="sourcePoint" />
            <mxPoint x="203" y="79" as="targetPoint" />
            <mxPoint as="offset" />
          </mxGeometry>
        </mxCell>
        <mxCell id="C3Lxm-kHkf1sFhJQrUD9-10" value="alt" style="shape=umlFrame;whiteSpace=wrap;html=1;pointerEvents=0;dashed=1;fillColor=#dae8fc;strokeColor=#6c8ebf;strokeWidth=3;" vertex="1" parent="1">
          <mxGeometry x="-146" y="-208" width="512" height="496" as="geometry" />
        </mxCell>
        <mxCell id="C3Lxm-kHkf1sFhJQrUD9-11" value="&lt;b&gt;[Credenciales correctas]&lt;/b&gt;" style="text;html=1;align=center;verticalAlign=middle;resizable=0;points=[];autosize=1;strokeColor=none;fillColor=none;strokeWidth=3;" vertex="1" parent="1">
          <mxGeometry x="45" y="-205" width="158" height="26" as="geometry" />
        </mxCell>
        <mxCell id="C3Lxm-kHkf1sFhJQrUD9-12" value="&lt;b&gt;[Credenciales correctas]&lt;/b&gt;" style="text;html=1;align=center;verticalAlign=middle;resizable=0;points=[];autosize=1;strokeColor=none;fillColor=none;strokeWidth=3;" vertex="1" parent="1">
          <mxGeometry x="45" y="172" width="158" height="26" as="geometry" />
        </mxCell>
        <mxCell id="C3Lxm-kHkf1sFhJQrUD9-21" value="Comenzar la partida" style="html=1;verticalAlign=bottom;endArrow=none;curved=0;rounded=0;endFill=0;startArrow=block;startFill=1;fillColor=#dae8fc;strokeColor=#6c8ebf;strokeWidth=3;" edge="1" parent="1">
          <mxGeometry x="0.0011" width="80" relative="1" as="geometry">
            <mxPoint x="-119" y="137" as="sourcePoint" />
            <mxPoint x="203" y="137" as="targetPoint" />
            <mxPoint as="offset" />
          </mxGeometry>
        </mxCell>
        <mxCell id="C3Lxm-kHkf1sFhJQrUD9-22" value="Error de autenticación" style="html=1;verticalAlign=bottom;endArrow=none;curved=0;rounded=0;endFill=0;startArrow=block;startFill=1;fillColor=#dae8fc;strokeColor=#6c8ebf;strokeWidth=3;" edge="1" parent="1">
          <mxGeometry x="0.0011" width="80" relative="1" as="geometry">
            <mxPoint x="-119" y="247" as="sourcePoint" />
            <mxPoint x="203" y="247" as="targetPoint" />
            <mxPoint as="offset" />
          </mxGeometry>
        </mxCell>
        <mxCell id="C3Lxm-kHkf1sFhJQrUD9-29" value="" style="line;strokeWidth=3;fillColor=#dae8fc;align=left;verticalAlign=middle;spacingTop=-1;spacingLeft=3;spacingRight=3;rotatable=0;labelPosition=right;points=[];portConstraint=eastwest;strokeColor=#6c8ebf;dashed=1;" vertex="1" parent="1">
          <mxGeometry x="-146" y="160" width="512" height="8" as="geometry" />
        </mxCell>
      </root>
    </mxGraphModel>
  </diagram>
</mxfile>
